<svg width="32" height="32" viewBox="0 0 32 32" fill="none" xmlns="http://www.w3.org/2000/svg">
<g clip-path="url(#clip0_404_43)">
<circle cx="16.5" cy="18.5" r="13.5" fill="white"/>
<path d="M32 16C32 7.1625 24.8375 0 16 0C7.1625 0 0 7.1625 0 16C0 24.8375 7.1625 32 16 32C16.0938 32 16.1875 32 16.2812 31.9937V19.5438H12.8438V15.5375H16.2812V12.5875C16.2812 9.16875 18.3688 7.30625 21.4188 7.30625C22.8813 7.30625 24.1375 7.4125 24.5 7.4625V11.0375H22.4C20.7437 11.0375 20.4188 11.825 20.4188 12.9812V15.5312H24.3875L23.8687 19.5375H20.4188V31.3813C27.1063 29.4625 32 23.3063 32 16Z" fill="#6B185D"/>
</g>
<defs>
<clipPath id="clip0_404_43">
<rect width="32" height="32" fill="white"/>
</clipPath>
</defs>
</svg>
