<svg width="32" height="32" viewBox="0 0 32 32" fill="none" xmlns="http://www.w3.org/2000/svg">
<g clip-path="url(#clip0_404_51)">
<ellipse cx="16" cy="17.5" rx="14" ry="14.5" fill="white"/>
<path d="M15.998 0.333069C7.164 0.333069 0 7.52507 0 16.3971C0 23.4931 4.584 29.5131 10.944 31.6391C11.744 31.7871 12.036 31.2911 12.036 30.8651C12.036 30.4831 12.022 29.4731 12.014 28.1331C7.564 29.1031 6.624 25.9791 6.624 25.9791C5.898 24.1231 4.848 23.6291 4.848 23.6291C3.394 22.6331 4.956 22.6531 4.956 22.6531C6.562 22.7671 7.406 24.3091 7.406 24.3091C8.834 26.7631 11.152 26.0551 12.064 25.6431C12.208 24.6051 12.622 23.8971 13.08 23.4951C9.528 23.0891 5.792 21.7111 5.792 15.5571C5.792 13.8031 6.416 12.3691 7.44 11.2451C7.274 10.8391 6.726 9.20507 7.596 6.99507C7.596 6.99507 8.94 6.56307 11.996 8.64107C13.272 8.28507 14.64 8.10707 16.002 8.10107C17.36 8.10907 18.73 8.28507 20.008 8.64307C23.062 6.56507 24.404 6.99707 24.404 6.99707C25.276 9.20907 24.728 10.8411 24.564 11.2471C25.59 12.3711 26.208 13.8051 26.208 15.5591C26.208 21.7291 22.468 23.0871 18.904 23.4851C19.478 23.9811 19.99 24.9611 19.99 26.4591C19.99 28.6071 19.97 30.3391 19.97 30.8651C19.97 31.2951 20.258 31.7951 21.07 31.6371C27.42 29.5091 32 23.4911 32 16.3971C32 7.52507 24.836 0.333069 15.998 0.333069Z" fill="#6B185D"/>
</g>
<defs>
<clipPath id="clip0_404_51">
<rect width="32" height="32" fill="white"/>
</clipPath>
</defs>
</svg>
