<svg width="99" height="80" viewBox="0 0 99 80" fill="none" xmlns="http://www.w3.org/2000/svg">
<g clip-path="url(#clip0_24_197)">
<path d="M98.0388 44.5493C97.4619 40.4898 96.0559 36.6402 93.8585 33.1083C91.9422 30.026 89.4833 27.2846 86.5484 24.9546L86.5563 24.9473L55.732 1.27251C55.7098 1.25294 55.6866 1.23451 55.6625 1.21728C54.6377 0.432221 53.2502 0.000244141 51.757 0.000244141C50.262 0.000244141 48.8202 0.433183 47.6993 1.21979C46.4942 2.06161 45.8054 3.17859 45.7573 4.36754C45.7132 5.47683 46.2424 6.54416 47.2512 7.37618C49.235 8.94149 51.2144 10.5409 53.1965 12.1422C55.1201 13.6969 57.1022 15.298 59.0747 16.8568L21.3199 16.8312C17.0022 16.8312 14.0623 18.8587 13.4575 22.2531C13.1918 23.7399 13.6607 25.3747 14.709 26.6268C15.8212 27.9541 17.4359 28.6862 19.2556 28.6862L22.1338 28.6881C26.1099 28.6881 30.1035 28.6783 34.0918 28.6687L37.8951 28.6598L3.62943 54.0104L3.49339 54.1099C1.57942 55.5769 0.326396 57.6337 0.0560501 59.7524C-0.148874 61.3575 0.22557 62.8243 1.13936 63.9957C2.22844 65.3923 3.92883 66.1604 5.92766 66.1604C7.89128 66.1604 9.89492 65.4164 11.572 64.0615L30.076 48.9183C29.997 49.6578 29.9009 50.7426 29.9119 51.53C29.9327 52.7767 30.3329 55.2781 30.9665 57.3089C32.2757 61.4824 34.481 65.3009 37.5209 68.6544C40.6838 72.1433 44.536 74.9096 48.9697 76.8748C53.657 78.9479 58.6958 80.0002 63.9467 80.0002H63.9954C69.263 79.9875 74.3178 78.9185 79.0203 76.8217C83.4613 74.8333 87.3117 72.0557 90.4627 68.5674C93.4987 65.1968 95.7009 61.3719 97.0076 57.2019C97.6541 55.1376 98.0681 53.0076 98.2422 50.8515C98.4036 48.7676 98.3341 46.6472 98.0388 44.5493ZM64.3305 64.5528C52.7584 64.5528 43.3742 56.1582 43.3742 45.8023C43.3742 35.4475 52.7586 27.053 64.3305 27.053C75.9029 27.053 85.2861 35.4475 85.2861 45.8023C85.2865 56.1582 75.9029 64.5528 64.3305 64.5528ZM76.4157 44.1546C76.5864 47.2454 75.3518 50.1153 73.1839 52.2398C70.9786 54.4041 67.8318 55.7635 64.3128 55.7635C60.7955 55.7635 57.6481 54.4041 55.442 52.2398C53.275 50.1153 52.043 47.2458 52.2127 44.1571C52.3789 41.1548 53.8434 38.5047 56.0493 36.6282C58.2184 34.7831 61.131 33.6575 64.3126 33.6575C67.4947 33.6575 70.4065 34.7835 72.5758 36.6282C74.7828 38.5047 76.2477 41.1529 76.4157 44.1546Z" fill="white"/>
</g>
<defs>
<clipPath id="clip0_24_197">
<rect width="98.3284" height="80" fill="white"/>
</clipPath>
</defs>
</svg>
