<svg width="206" height="201" viewBox="0 0 206 201" fill="none" xmlns="http://www.w3.org/2000/svg">
<path d="M17.2669 0.112061L31.0088 32.3189V168.303H14.2306L0.492188 200.509H97.0679V168.303H68.7564V116.414H97.0679V84.2072H68.7564V32.3189H97.0679V0.112061H17.2669Z" fill="white"/>
<path d="M205.066 142.359C205.066 121.981 192.771 104.062 174.177 93.6786C183.018 83.8696 188.287 71.5944 188.287 58.2632C188.287 26.1467 157.774 0.112061 120.135 0.112061H113.843V32.3192H120.135C136.902 32.3192 150.543 43.959 150.543 58.2635C150.543 72.5678 136.902 84.2075 120.135 84.2075H113.843V116.415H136.909C153.677 116.415 167.318 128.054 167.318 142.359C167.318 156.664 153.677 168.303 136.909 168.303H113.843V200.511H136.909C174.552 200.511 205.066 174.474 205.066 142.359Z" fill="white"/>
</svg>
