<svg xmlns="http://www.w3.org/2000/svg" xmlns:xlink="http://www.w3.org/1999/xlink" viewBox="0 0 68 74"><path d="M 63.137 16.526 L 37.853 1.562 C 35.475 0.147 32.514 0.147 30.136 1.562 L 4.852 16.526 C 2.468 17.934 1 20.546 1 23.37 L 1 53.3 C 1 56.124 2.468 58.734 4.86 60.142 C 4.86 60.142 17.512 67.636 24.92 72.015 C 27.142 73.335 29.896 71.815 30.128 69.268 L 30.148 68.914 L 30.148 25.904 L 34 23.626 L 37.853 25.904 L 37.853 68.914 L 37.873 69.268 C 38.111 71.809 40.859 73.329 43.079 72.015 L 63.143 60.142 C 65.544 58.701 67.01 56.101 67.001 53.3 L 67.001 23.37 C 66.995 20.546 65.521 17.934 63.137 16.526 Z M 23.798 63.834 L 8.032 54.502 C 7.61 54.247 7.353 53.788 7.356 53.294 L 7.356 40.2 C 7.356 39.707 7.612 39.249 8.032 38.99 L 23.8 29.66 L 23.8 63.836 Z M 7.35 31.88 L 7.35 23.372 C 7.35 22.876 7.606 22.412 8.026 22.162 L 33.31 7.196 C 33.728 6.949 34.247 6.949 34.664 7.196 L 59.949 22.162 C 60.373 22.417 60.631 22.877 60.627 23.372 L 60.627 31.88 L 33.994 16.108 Z M 60.639 53.3 C 60.639 53.796 60.383 54.26 59.961 54.51 L 44.195 63.834 L 44.195 29.666 L 59.961 38.996 C 60.381 39.248 60.641 39.71 60.641 40.206 L 60.641 53.3 Z" fill="transparent" stroke="hsl(0, 0%, 100%)" stroke-linecap="round" stroke-linejoin="round"></path></svg>