<svg width="91" height="78" viewBox="0 0 91 78" fill="none" xmlns="http://www.w3.org/2000/svg">
<path d="M43.2222 0.91114C41.0444 1.20003 39.2 1.80003 36.4222 3.13336L34.8222 3.91114L24.2444 3.84447C16.2889 3.80003 13.6667 3.84447 13.6667 4.04447C13.6667 4.1778 14.4889 4.86669 15.5111 5.5778C19.5778 8.42225 22.9333 12.5556 24.8889 17.1111C25.6667 18.8889 25.7778 19.4 25.9111 21.6667C26.1111 24.6 26.4667 26.4 27.2222 28.2223C28.1333 30.3778 28.5111 31.0889 29.4 32.4222C30.6667 34.2889 32.8 36.4667 34.5111 37.6445C35.9333 38.6 38.4 39.8889 38.8222 39.8889C38.9778 39.8889 39.3111 40.0445 39.5333 40.2222C39.9555 40.5334 39.9555 40.5778 39.4667 42.7778C37.9778 49.4889 34.4667 54.2222 29.2 56.6445C26.6889 57.8 24.7555 58.1778 22.1778 58.0667C19.1778 57.9111 17.8 57.3556 16.0222 55.5778C14.6889 54.2445 14.0444 53.1111 13.4222 51C12.7778 48.8889 13.1111 40.8445 13.8889 39.7778C14.2 39.3334 14.3111 38.8 14.1111 38.6667C13.8667 38.5111 12.3778 40.6667 11.5778 42.3111C11.2667 42.9556 10.8 44.3556 10.5333 45.4C10.1333 47.0222 10.0889 47.7334 10.1778 50.3111C10.4 56.8 12.5333 60.6 17.4444 63.2667C18.3778 63.7778 18.8667 63.9556 21.1333 64.5334C23.0889 65.0445 27.4889 64.6889 28.9555 63.9111C29.5111 63.6223 29.6667 63.6 29.6667 63.8667C29.6667 64.3111 25.2 66.9556 23.2889 67.6445C19.9555 68.8222 15.8889 69.1334 13.1333 68.4222C10.0889 67.6445 7.5111 65.6445 6.13332 63C4.9111 60.7111 4.5111 58.8889 4.39999 55.0445C4.26665 51.0667 4.57776 47.9556 5.35554 45.9111C5.64443 45.1334 5.88888 44.4222 5.88888 44.3111C5.88888 43.4 3.53332 46.6889 2.44443 49.1111C1.3111 51.6889 0.555542 55.1778 0.555542 57.9556C0.555542 59.7334 1.04443 63 1.64443 65C3.44443 71.1556 7.53332 75 14.2222 76.8C15.8 77.2445 21.1555 77.1778 22.8889 76.7111C23.6222 76.5111 25.1333 75.8889 26.2222 75.3556C27.3333 74.8 29.1111 74.1556 30.2222 73.8889C31.3333 73.6445 32.5778 73.3334 33 73.2222C36.9555 72.1778 42.3333 71.4445 45.8889 71.4445C48.9555 71.4445 53.1555 72.0222 57.4444 73.0222C62.2444 74.1556 63.1111 74.4223 64.5778 75.1334C67.9333 76.8 69.1111 77.0667 72.8889 77.0889C77.2222 77.1111 79.9555 76.3111 83.2667 74.0667C86.1333 72.1111 88.2 69.4445 89.3111 66.2222C90.6 62.4889 91.1111 57.8223 90.5333 54.9556C90.4 54.3111 90.2 53.2222 90.0667 52.5556C89.5778 50.2222 87.2444 45.5778 85.8889 44.2889C85.4222 43.8667 85.1555 44 85.4222 44.5334C86.4444 46.5556 86.8 48.4222 86.9333 52.6222C87.1555 59.2889 86.1333 62.8222 83.1333 65.7334C81 67.8 78.2444 68.7778 74.5333 68.7778C70.5333 68.7778 67.0889 67.6445 63.2444 65.1111C61.4667 63.9334 61.4444 63.6445 63.1555 64.2445C64.6222 64.7556 68.4 64.9111 70.1778 64.5556C74.4 63.6445 77.6667 61.2667 79.4889 57.7334C80.2222 56.3111 80.4 55.7778 80.9778 53.1778C81.4 51.3778 81.2889 47.2222 80.7778 45.2667C80.1555 42.9556 78.8667 40.2889 77.7333 39.0222L77.2222 38.4445V39.0445C77.2222 39.3778 77.3111 39.6889 77.4222 39.7556C78.1778 40.2222 78.5555 48.8667 77.9111 51C76.8222 54.6667 74.7333 56.8889 71.5778 57.8C69.7778 58.3111 66.1333 58.1556 64.1111 57.4667C58.8444 55.7111 54.7333 51.6 52.8444 46.2222C52.2444 44.5334 51.3778 40.8889 51.4889 40.5556C51.5333 40.4222 52.1555 40.0667 52.8667 39.7778C57.0444 38.0667 60.9333 34.6 62.9555 30.7556C64.4889 27.8223 65.1778 25.3778 65.3555 22.1111C65.4889 19.5334 65.6444 18.8889 66.5778 16.8223C66.9333 16.0667 67.2222 15.3778 67.2222 15.3334C67.2222 15.2667 67.7333 14.4 68.3555 13.3778C70.2667 10.3111 73.0444 7.4667 76.5333 5.04447C77.2 4.60003 77.7333 4.13336 77.7555 4.04447C77.7778 3.93336 72.9778 3.86669 67.1111 3.88892L56.4444 3.91114L55.1333 3.22225C53.6222 2.4667 51.8222 1.75558 50.2222 1.31114C49.0889 1.00003 44.6 0.73336 43.2222 0.91114ZM33.6222 25.8889C34.4444 26.3778 35.7555 27.2 36.5555 27.7111C37.3555 28.2223 38.7555 29.0223 39.6667 29.4889C40.5778 29.9778 41.5111 30.5334 41.7333 30.7111C42.4667 31.3778 42.0222 33 41.0889 33C40.4889 33 38.6444 32.4889 37.5555 32.0222C35.9333 31.3334 33.9555 29.2667 32.8222 27.0667C31.5333 24.5778 31.5111 24.6222 33.6222 25.8889ZM59.2889 25.1334C59.4889 25.3334 58.5778 27.1556 57.5111 28.7111C55.9333 31 54.0222 32.2445 51.4222 32.7778C49.9778 33.0667 49.4889 32.9334 49.3111 32.2C49.0222 31.0445 49.3333 30.6889 51.7111 29.4667C53.7778 28.4 56.8444 26.5334 58.3333 25.4445C58.9555 24.9778 59.0889 24.9334 59.2889 25.1334Z" fill="white"/>
</svg>
