<svg width="67" height="80" viewBox="0 0 67 80" fill="none" xmlns="http://www.w3.org/2000/svg">
<g clip-path="url(#clip0_24_212)">
<path d="M56.462 23.2447L50.5225 29.1842C60.275 38.9367 60.275 54.6287 50.5225 64.2346C40.77 73.9871 25.0779 73.9871 15.4721 64.2346C5.71954 54.4821 5.71954 38.79 15.4721 29.1842L30.9441 13.7121L33.1439 11.5123V-0.146729L9.82586 23.1714C-3.15305 36.1503 -3.15305 57.1219 9.82586 70.1008C22.8048 83.0797 43.7764 83.0797 56.5353 70.1008C69.4409 57.1219 69.4409 36.2969 56.462 23.2447Z" fill="white"/>
<path d="M44.803 21.8514C47.1923 21.8514 49.1293 19.9145 49.1293 17.5252C49.1293 15.1358 47.1923 13.1989 44.803 13.1989C42.4136 13.1989 40.4767 15.1358 40.4767 17.5252C40.4767 19.9145 42.4136 21.8514 44.803 21.8514Z" fill="white"/>
</g>
<defs>
<clipPath id="clip0_24_212">
<rect width="66.2145" height="80" fill="white"/>
</clipPath>
</defs>
</svg>
