<svg width="80" height="80" viewBox="0 0 80 80" fill="none" xmlns="http://www.w3.org/2000/svg">
<path d="M45.36 1.59998L75.6 19.04L66.64 24.24L45.76 12.16C45.52 12 45.2 12 44.96 12.16L13.52 30.32L4.56001 25.12L45.36 1.59998ZM44.56 14.32V36.96L35.6 42.08V31.28C35.6 30.64 34.88 30.24 34.4 30.56L14.4 42.08V31.76L44.56 14.32ZM46.24 14.32L65.76 25.6V36L46.24 24.64V14.32ZM76.4 20.4V30.8L67.44 36V25.6L76.4 20.4ZM3.76001 26.56L12.72 31.76V42.08L3.76001 36.96V26.56ZM33.92 32.72V43.52C33.92 43.84 34.08 44.08 34.4 44.24L44.56 50.16V60.48L35.2 55.04C34.64 54.72 33.92 55.12 33.92 55.76V78.88L24.96 73.68V37.84L33.92 32.72ZM45.36 38.32L54.4 43.52L45.36 48.72L36.4 43.52L45.36 38.32ZM55.2 44.96V55.28L46.24 60.48V50.16L55.2 44.96ZM35.6 57.2L44.56 62.4V73.68L35.6 78.88V57.2Z" fill="white"/>
</svg>
