<svg width="28" height="28" viewBox="0 0 28 28" fill="none" xmlns="http://www.w3.org/2000/svg">
<path d="M13.8 0C6.18572 0 0 6.18572 0 13.8C0 21.4143 6.18572 27.6 13.8 27.6C21.4143 27.6 27.6 21.4143 27.6 13.8C27.6 6.18572 21.4143 0 13.8 0ZM13.8 1.2C20.7657 1.2 26.4 6.83428 26.4 13.8C26.4 20.7657 20.7657 26.4 13.8 26.4C6.83428 26.4 1.2 20.7657 1.2 13.8C1.2 6.83428 6.83428 1.2 13.8 1.2ZM19.793 7.79297C19.6955 7.79489 19.5999 7.82055 19.5146 7.86771C19.4292 7.91488 19.3566 7.98214 19.3031 8.06367L13.1824 17.0859L8.80781 13.0266C8.75035 12.9713 8.68244 12.928 8.60805 12.8992C8.53367 12.8705 8.4543 12.8569 8.37458 12.8591C8.29486 12.8614 8.2164 12.8796 8.14378 12.9125C8.07116 12.9455 8.00584 12.9926 7.95163 13.0511C7.89742 13.1096 7.85542 13.1783 7.82807 13.2532C7.80073 13.3281 7.78859 13.4077 7.79236 13.4874C7.79614 13.567 7.81575 13.6451 7.85006 13.7171C7.88437 13.7891 7.93269 13.8535 7.99219 13.9066L13.3898 18.9152L20.2969 8.73633C20.3602 8.64555 20.3972 8.53901 20.4038 8.42851C20.4104 8.318 20.3862 8.20783 20.3341 8.11019C20.2819 8.01255 20.2038 7.93123 20.1083 7.87525C20.0128 7.81926 19.9036 7.79079 19.793 7.79297Z" fill="#C41A98"/>
</svg>
