<svg width="32" height="32" viewBox="0 0 32 32" fill="none" xmlns="http://www.w3.org/2000/svg">
<ellipse cx="16.5" cy="16" rx="14.5" ry="14" fill="white"/>
<path d="M16 0C12.8355 0 9.74207 0.938384 7.11088 2.69649C4.4797 4.45459 2.42894 6.95345 1.21793 9.87707C0.00693251 12.8007 -0.309921 16.0178 0.307443 19.1214C0.924806 22.2251 2.44866 25.0761 4.6863 27.3137C6.92394 29.5514 9.77487 31.0752 12.8786 31.6926C15.9823 32.3099 19.1993 31.9931 22.1229 30.7821C25.0466 29.5711 27.5454 27.5203 29.3035 24.8891C31.0616 22.2579 32 19.1645 32 16C32 11.7565 30.3143 7.68687 27.3137 4.68629C24.3131 1.68571 20.2435 0 16 0ZM11.3474 24.4211H7.85685V13.1768H11.3474V24.4211ZM9.60001 11.6421C9.19829 11.6438 8.80511 11.5263 8.47014 11.3045C8.13518 11.0828 7.87348 10.7667 7.71812 10.3962C7.56276 10.0258 7.52071 9.61758 7.5973 9.22323C7.67388 8.82888 7.86566 8.46609 8.14839 8.18071C8.43112 7.89533 8.79211 7.70018 9.18573 7.61992C9.57934 7.53967 9.98792 7.5779 10.3598 7.7298C10.7317 7.8817 11.0502 8.14045 11.2751 8.47333C11.4999 8.80621 11.6211 9.19829 11.6232 9.6C11.6243 10.1387 11.4121 10.6559 11.033 11.0385C10.6539 11.4212 10.1387 11.6382 9.60001 11.6421ZM24.4211 24.4211H20.9326V18.9474C20.9326 17.6421 20.9074 15.9684 19.1179 15.9684C17.3284 15.9684 17.0126 17.3874 17.0126 18.8526V24.4211H13.5368V13.1768H16.8863V14.7095H16.9347C17.4 13.8253 18.539 12.8926 20.2379 12.8926C23.7705 12.8926 24.4211 15.2211 24.4211 18.2442V24.4211Z" fill="#6B185D"/>
</svg>
