<svg width="33" height="33" viewBox="0 0 33 33" fill="none" xmlns="http://www.w3.org/2000/svg">
<g clip-path="url(#clip0_404_47)">
<path d="M16.5005 32.9997C25.6132 32.9997 33.0005 25.6125 33.0005 16.4999C33.0005 7.38724 25.6132 0 16.5005 0C7.38779 0 0.000488281 7.38724 0.000488281 16.4999C0.000488281 25.6125 7.38779 32.9997 16.5005 32.9997Z" fill="#6B185D"/>
<path d="M26.6069 11.8579C25.8871 12.1769 25.1235 12.386 24.3416 12.4783C25.1653 11.9857 25.7818 11.2103 26.076 10.2967C25.3018 10.7561 24.4548 11.0797 23.5715 11.2535C23.2024 10.8599 22.7563 10.5462 22.261 10.3321C21.7657 10.1179 21.2317 10.0078 20.692 10.0085C18.5143 10.0085 16.748 11.7747 16.748 13.9524C16.748 14.2615 16.783 14.5624 16.8507 14.8513C13.5729 14.6868 10.6667 13.1168 8.72129 10.73C8.37049 11.3319 8.18614 12.0163 8.18715 12.713C8.18715 14.0809 8.88394 15.2886 9.94163 15.9957C9.31528 15.9764 8.70271 15.807 8.15539 15.5019L8.15509 15.5519C8.15509 17.4628 9.51514 19.0567 11.319 19.4187C10.9805 19.5111 10.6311 19.5577 10.2802 19.5573C10.0255 19.5573 9.77868 19.5329 9.53808 19.487C10.0399 21.0535 11.4961 22.1938 13.2223 22.2259C11.8252 23.3224 10.0997 23.9171 8.32363 23.9142C8.00597 23.9142 7.69125 23.8956 7.3833 23.8589C9.18628 25.018 11.285 25.6333 13.4285 25.631C20.6829 25.631 24.6501 19.6214 24.6501 14.4092C24.6501 14.2383 24.6463 14.068 24.6386 13.8992C25.4111 13.3414 26.0776 12.6502 26.6069 11.8579Z" fill="#F1F2F2"/>
</g>
<defs>
<clipPath id="clip0_404_47">
<rect width="33" height="33" fill="white"/>
</clipPath>
</defs>
</svg>
