<?xml version="1.0" encoding="utf-8"?>
<!-- Generator: Adobe Illustrator 19.0.0, SVG Export Plug-In . SVG Version: 6.00 Build 0)  -->
<svg version="1.1" id="Layer_1" xmlns="http://www.w3.org/2000/svg" xmlns:xlink="http://www.w3.org/1999/xlink" x="0px" y="0px"
	 viewBox="94 -4 800 800" style="enable-background:new 94 -4 800 800;" xml:space="preserve">
<style type="text/css">
	.st0{fill:#9D9FA1;}
</style>
<path class="st0" d="M704.8,285.6l52,52H842v85.2l52,52V285.6H704.8z M160.7,298.3L94,463.8h43.6l12.3-32.7h74l13.6,32.7h44.6
	l-73.8-165.3h-47.6V298.3z M301,298.3v165.2h41.3V360.4l44.6,52.1h6.3l44.6-51.9v103H479V298.3h-36l-53.1,61.5l-53-61.5H301z
	 M510.4,298.3v165.3H579c66,0,96-34.9,96-82.4c0-45.3-31.2-82.9-91.6-82.9H510.4z M551.6,328.8H578c39,0,54.3,23.7,54.3,52.3
	c0,24.3-12.4,52.4-53.9,52.4h-26.9V328.8H551.6z M185.5,337.8l26.4,64.4H161L185.5,337.8z M756.7,348l-53.5,53.4v75h74.9l53.5-53.6
	h-74.9V348z"/>
</svg>
