<svg width="210" height="38" viewBox="0 0 210 38" fill="none" xmlns="http://www.w3.org/2000/svg">
<g clip-path="url(#clip0_72_34)">
<path fill-rule="evenodd" clip-rule="evenodd" d="M19.4464 11.207C19.1841 12.9419 18.8046 14.06 17.5629 15.3472C16.2477 16.7101 14.543 16.523 12.7709 16.5171C11.8987 16.5151 10.8219 16.533 9.96956 16.3659C9.01989 16.1788 9.34768 14.8677 9.34768 14.0103C9.34768 11.977 9.34967 9.94366 9.34768 7.91037C9.34768 6.92157 9.34768 5.93278 9.34768 4.94398C9.3457 3.7045 8.96624 3.10764 10.2676 2.85895C11.853 2.55455 13.9848 2.54461 15.4728 3.23696C18.4033 4.59979 19.9212 8.06955 19.4464 11.207ZM13.8795 0H11.9742C11.9742 0.38 12.0576 0.905246 11.8649 1.1798C11.4874 1.30315 9.9298 1.32304 9.63179 1.16785C9.47483 0.895288 9.55232 0.362094 9.55232 0H7.78413L7.78013 1.25142C7.09272 1.31509 3.60993 1.18178 2.4 1.17383C1.83377 1.16786 0.95364 0.992785 1.09073 1.72692C1.84172 2.22431 3.57219 1.43843 4.5457 2.70974C5.12583 3.46974 5.09998 5.59456 5.10395 6.59131C5.11786 9.38859 5.25894 12.8245 5.08808 15.5521C3.92583 15.6118 1.20397 14.0083 0 13.9864C1.53974 18.5185 10.9272 18.618 14.7338 18.1962C17.6205 17.8759 20.2132 16.7618 23.2848 17.3368C24.445 17.5556 25.947 17.7824 26.8629 18.6081C28.4126 20.0087 27.4808 20.6155 26.9523 21.9007C27.8781 21.7396 27.9596 20.894 28.8298 20.6195C29.8013 20.3131 30.0238 21.4431 30.7053 21.6759C32.5728 22.3185 33.0854 23.8525 32.6364 25.6828C33.6974 24.8771 33.2285 22.5911 32.3901 21.7257C31.8775 21.1984 31.3351 21.089 30.8603 20.6195C30.2563 20.0226 29.8629 19.9788 29.094 19.758C28.5556 18.6638 28.7265 18.5862 27.6099 17.852C24.7152 15.9481 22.4106 16.1868 19.1503 16.344C19.2874 15.8943 20.5411 14.8638 20.9444 14.448C26.0722 9.16377 23.7815 1.56774 13.8914 1.18973L13.8795 0Z" fill="#B3B3B3"/>
<path fill-rule="evenodd" clip-rule="evenodd" d="M7.81788 37.9105H9.55431L9.5563 36.8441L11.8927 36.8401C12.0278 37.1445 11.9742 37.5623 11.9742 37.9105H13.8536L13.9113 36.9197C14.2013 36.7466 16.2676 36.8023 16.8099 36.7625C19.1007 36.5874 21.5106 35.8075 23.3325 34.395C25.651 32.5984 27.5563 29.4092 27.2642 26.3672C26.6146 26.413 22.9987 27.5132 22.7404 27.9708C22.7166 28.0165 22.5735 29.8171 22.4503 30.2766C21.3636 34.3671 18.6437 35.2823 14.5788 35.1768C14.0265 35.1629 9.98941 34.9719 9.81259 34.8625C9.27418 33.1376 12.1013 28.6313 13.4285 27.4435C16.7603 24.4593 20.4258 24.6005 21.145 24.0096C19.2378 23.8942 15.7967 24.3638 14.0106 25.0621C11.9603 25.8658 10.6411 26.8268 9.15696 28.4383C6.69338 31.1142 6.24239 34.6277 4.05298 35.6822C3.19669 36.094 0.840388 35.8016 1.05694 36.6173C1.6033 37.0649 7.19802 36.4501 7.80398 36.8381L7.81788 37.9105Z" fill="#B3B3B3"/>
<path fill-rule="evenodd" clip-rule="evenodd" d="M5.19936 30.4517C5.21922 30.4378 6.7947 28.3289 7.1702 27.933C8.65232 26.3692 10.5775 25.3387 12.457 24.3419L14.7973 23.3113C15.7192 22.9313 15.3775 23.1362 15.5285 22.8697C15.0079 22.8517 11.4675 23.3093 10.3013 23.379C9.58808 23.4208 5.51126 23.6993 5.14768 23.8445C4.94702 24.332 5.09404 26.4926 5.09404 27.1969C5.09404 27.8952 4.90929 29.9961 5.19936 30.4517Z" fill="#B3B3B3"/>
<path fill-rule="evenodd" clip-rule="evenodd" d="M13.6431 34.574C14.5212 32.3517 16.6172 29.5783 18.6318 28.2831C21.4311 26.4866 21.8563 26.6358 24.5503 25.7485C25.2596 25.5137 26.4636 25.7425 26.9801 25.257C21.7947 25.2073 16.8993 26.1026 13.6649 30.4855C13.1225 31.2217 11.5748 33.6887 11.6106 34.5283L13.6431 34.574Z" fill="#B3B3B3"/>
<path fill-rule="evenodd" clip-rule="evenodd" d="M5.14768 19.6445C4.99073 19.8375 4.91722 21.4351 5.13974 21.646C5.27484 21.7753 6.86821 21.7116 7.17417 21.7116C8.6404 21.7116 9.84435 21.6639 11.2887 21.5744C12.5046 21.4987 17.4358 20.6333 18.3497 20.0922C18.2086 20.0325 15.5305 20.3309 15.0735 20.3627C12.7093 20.5179 10.4781 20.4901 8.13179 20.0762C7.67881 19.9947 5.34239 19.4973 5.14768 19.6445Z" fill="#B3B3B3"/>
<path fill-rule="evenodd" clip-rule="evenodd" d="M22.8457 23.9421C24.3795 24.0097 25.8676 23.4964 28.3093 23.9142C32.0265 24.5489 31.6431 25.8182 31.945 25.9535C32.5689 24.2146 29.4517 23.4984 28.2954 23.3731C27.2583 23.2617 26.3384 23.1781 25.2795 23.1463C24.7212 23.1284 23.1119 23.2995 22.8457 23.9421Z" fill="#B3B3B3"/>
<path fill-rule="evenodd" clip-rule="evenodd" d="M26.6086 19.8416C26.257 19.6089 25.4543 18.9782 25.0967 18.8946C24.4987 18.7553 23.5371 18.7275 22.955 18.9304C23.257 19.3045 23.398 19.0399 23.7417 19.4159L23.0583 19.6109C23.1616 19.9511 23.8252 20.2694 24.0934 20.5559C24.4331 20.918 24.8325 21.3179 25.3768 21.0075C25.1404 20.8205 24.8126 20.7369 24.6854 20.3788C24.5901 20.1082 24.5126 19.4616 24.8821 19.396C25.7801 19.2368 24.7391 20.7111 26.0841 20.4882L26.6086 19.8416Z" fill="#B3B3B3"/>
<path d="M60.9536 16.4435V20.3729H47.3583V26.2997H60.9536V30.227H43.4364V16.4435H60.9536ZM43.4364 11.5533V7.62598H60.9536V11.5533H43.4364ZM62.1556 30.227L68.1477 18.2998L62.7815 7.62598H67.1861L70.3371 13.9149L73.5378 7.62598H77.8927L72.5265 18.2998L78.5662 30.227H74.1636L70.3371 22.6608L66.5106 30.227H62.1556ZM77.5311 18.9265C77.5311 17.3687 77.8291 15.9024 78.4192 14.5296C79.0073 13.1549 79.8099 11.9552 80.8252 10.9266C81.8384 9.898 83.0305 9.09025 84.4013 8.50533C85.7742 7.91842 87.2285 7.62598 88.7682 7.62598V11.5533C87.7589 11.5533 86.8113 11.7502 85.9291 12.1422C85.047 12.5361 84.2742 13.0633 83.6086 13.7219C82.9431 14.3804 82.4166 15.1583 82.0311 16.0596C81.6477 16.9588 81.455 17.9138 81.455 18.9265C81.455 19.9391 81.6477 20.8941 82.0311 21.7934C82.4166 22.6927 82.9431 23.4765 83.6086 24.143C84.2742 24.8095 85.051 25.3367 85.9411 25.7207C86.8331 26.1067 87.7828 26.2997 88.794 26.2997C89.996 26.2997 91.1066 26.039 92.1258 25.5158C93.145 24.9945 93.9874 24.2803 94.653 23.3711C95.3186 22.4639 95.7556 21.4114 95.9642 20.2157C96.1729 19.018 96.0755 17.7447 95.6742 16.3958H99.7649C100.039 17.6174 100.123 18.8051 100.019 19.963C99.9139 21.1189 99.6536 22.2072 99.2364 23.2278C98.8192 24.2465 98.2609 25.1875 97.5636 26.047C96.8662 26.9065 96.0636 27.6446 95.1576 28.2633C94.2517 28.8821 93.2563 29.3635 92.1735 29.7097C91.0907 30.0539 89.9642 30.227 88.794 30.227C87.2364 30.227 85.7742 29.9306 84.4013 29.3357C83.0305 28.7408 81.8384 27.9331 80.8252 26.9144C79.8099 25.8938 79.0073 24.6961 78.4192 23.3233C77.8291 21.9506 77.5311 20.4843 77.5311 18.9265ZM85.3768 18.9265C85.3768 18.445 85.4682 17.9954 85.653 17.5776C85.8378 17.1598 86.0861 16.7937 86.4 16.4813C86.7119 16.167 87.0775 15.9183 87.4947 15.7333C87.9099 15.5483 88.3609 15.4568 88.8417 15.4568C89.3225 15.4568 89.7715 15.5483 90.1888 15.7333C90.606 15.9183 90.9715 16.167 91.2835 16.4813C91.5974 16.7937 91.8457 17.1598 92.0305 17.5776C92.2133 17.9954 92.3066 18.445 92.3066 18.9265C92.3066 19.4079 92.2133 19.8576 92.0305 20.2754C91.8457 20.6932 91.5974 21.0593 91.2835 21.3716C90.9715 21.686 90.606 21.9346 90.1888 22.1197C89.7715 22.3027 89.3225 22.3962 88.8417 22.3962C88.3609 22.3962 87.9099 22.3027 87.4947 22.1197C87.0775 21.9346 86.7119 21.686 86.4 21.3716C86.0861 21.0593 85.8378 20.6932 85.653 20.2754C85.4682 19.8576 85.3768 19.4079 85.3768 18.9265ZM102.989 30.227V7.62598H106.911V16.4435H118.174V7.62598H122.096V30.227H118.174V20.3729H106.911V30.227H102.989ZM124.285 30.2509C125.873 26.1226 127.293 22.428 128.545 19.1672C129.074 17.7686 129.598 16.3998 130.121 15.0589C130.641 13.7179 131.106 12.5122 131.515 11.4439C131.925 10.3755 132.262 9.50011 132.526 8.8177C132.791 8.1353 132.94 7.75331 132.972 7.67372H137.183C137.231 7.80105 137.392 8.22283 137.664 8.93907C137.936 9.65331 138.286 10.5526 138.711 11.6368C139.136 12.7211 139.605 13.9308 140.118 15.2638C140.632 16.5967 141.153 17.9536 141.681 19.3363C142.917 22.5812 144.314 26.2121 145.87 30.227H141.658C140.921 28.2832 140.166 26.3156 139.397 24.3241C139.075 23.4726 138.731 22.5773 138.362 21.6362C137.992 20.6972 137.625 19.7462 137.255 18.7812C136.885 17.8183 136.516 16.8534 136.148 15.8905C135.779 14.9255 135.427 14.0024 135.089 13.1191C134.801 13.8413 134.511 14.5893 134.223 15.3593C133.901 16.1949 133.574 17.0464 133.236 17.9138C132.9 18.7812 132.566 19.6447 132.238 20.5042C131.909 21.3637 131.589 22.1993 131.275 23.011C130.963 23.8227 130.671 24.5887 130.397 25.3109C129.755 27.0139 129.121 28.6612 128.495 30.2509H124.285ZM148.035 7.62598H151.957L160.115 22.1794V7.62598H164.036V30.227H160.067L151.957 15.6736V30.227H148.035V7.62598ZM166.973 19.0956C166.957 17.5199 167.241 16.0377 167.821 14.645C168.403 13.2523 169.202 12.0348 170.217 10.9942C171.23 9.95768 172.426 9.13601 173.805 8.53318C175.186 7.92638 176.652 7.62598 178.21 7.62598V11.5533C177.215 11.5533 176.277 11.7463 175.395 12.1302C174.511 12.5162 173.738 13.0395 173.072 13.698C172.407 14.3565 171.88 15.1225 171.495 15.9979C171.111 16.8733 170.911 17.8183 170.895 18.829C170.879 19.9212 171.083 20.9379 171.509 21.8789C171.934 22.818 172.51 23.6297 173.241 24.3121C173.97 24.9945 174.825 25.5118 175.804 25.866C176.781 26.2201 177.809 26.3474 178.883 26.2519C179.702 26.1863 180.471 25.9953 181.192 25.673C181.915 25.3527 182.561 24.9349 183.129 24.4196C183.699 23.9063 184.18 23.3034 184.574 22.6131C184.967 21.9227 185.235 21.1746 185.38 20.3729H178.234V16.4435H189.23C189.503 17.6651 189.578 18.8628 189.459 20.0346C189.338 21.2065 189.062 22.3087 188.628 23.3353C188.195 24.3639 187.621 25.3069 186.908 26.1664C186.195 27.0259 185.376 27.762 184.454 28.3728C183.53 28.9816 182.525 29.4571 181.434 29.7933C180.342 30.1315 179.203 30.2827 178.017 30.2509C176.684 30.235 175.419 29.9902 174.215 29.5167C173.013 29.0432 171.934 28.4046 170.982 27.6008C170.032 26.7971 169.23 25.854 168.576 24.7697C167.923 23.6854 167.466 22.5076 167.213 21.2403C167.132 20.8862 167.076 20.532 167.044 20.1799C167.013 19.8258 166.989 19.4637 166.973 19.0956ZM209.946 16.4435V20.3729H196.353V26.2997H209.946V30.227H192.429V16.4435H209.946ZM192.429 11.5533V7.62598H209.946V11.5533H192.429Z" fill="#B3B3B3"/>
</g>
<defs>
<clipPath id="clip0_72_34">
<rect width="210" height="38" fill="white"/>
</clipPath>
</defs>
</svg>
