<?xml version="1.0" encoding="utf-8"?>
<!-- Generator: Adobe Illustrator 19.0.0, SVG Export Plug-In . SVG Version: 6.00 Build 0)  -->
<svg version="1.1" id="Layer_1" xmlns="http://www.w3.org/2000/svg" xmlns:xlink="http://www.w3.org/1999/xlink" x="0px" y="0px"
	 viewBox="94 -4 800 800" style="enable-background:new 94 -4 800 800;" xml:space="preserve">
<style type="text/css">
	.st0{fill:#9D9FA1;}
</style>
<title>intel</title>
<path class="st0" d="M850,501.1c-10.4,0-18.9,8.5-18.9,18.9c0,10.4,8.5,18.9,18.9,18.9c10.5,0,18.9-8.5,18.9-18.9
	c0-5.2-2.1-10-5.5-13.4l0,0C859.9,503.2,855.2,501.1,850,501.1L850,501.1z M860.8,531c-2.8,2.8-6.7,4.6-11,4.6
	c-8.6,0-15.6-7-15.6-15.6c0-8.6,7-15.6,15.5-15.6v0h0.1c8.6,0,15.6,7,15.6,15.6C865.4,524.3,863.7,528.2,860.8,531L860.8,531z
	 M857.1,520c1-1,1.6-2.4,1.6-4c0-0.1,0-0.2,0-0.3v0c0-0.1,0-0.3,0-0.4c0-1.8-0.8-3.3-2-4.4l0,0c-1.4-1.1-3.1-1.8-5.1-1.8
	c-0.3,0-0.5,0-0.7,0h0h-8.5V531h4.1v-8.9h2.9l5.4,8.9h4.3l-5.6-9.3C854.9,521.6,856.2,521,857.1,520L857.1,520L857.1,520z
	 M851.3,518.5h-4.8v-6.2h4.8c0.6,0,1.2,0.2,1.8,0.4l-0.1,0c0.5,0.2,0.9,0.5,1.1,1l0,0c0.4,0.4,0.4,1,0.4,1.8c0,0,0,0,0,0
	c0,0.6-0.2,1.2-0.4,1.7v0c-0.3,0.4-0.7,0.7-1.1,1h0C852.5,518.2,851.9,518.4,851.3,518.5L851.3,518.5L851.3,518.5z M119.1,254.6
	h54.3v54.3h-54.3V254.6L119.1,254.6z M315.1,337.8L315.1,337.8c-0.3,0-0.7,0-1.1,0c-11.9,0-23.2,2.8-33.2,7.7l0.4-0.2
	c-10.3,5.1-18.9,12.1-25.5,20.7l-0.1,0.1l-2.7,3.6v-28.2h-50.8v195.5h51.2V436.8c-0.1-0.9-0.1-1.9-0.1-3c0-14.3,5.2-27.5,13.7-37.7
	l-0.1,0.1c8.1-8.6,19.5-13.9,32.2-13.9c0.1,0,0.3,0,0.5,0h0c0.8-0.1,1.8-0.1,2.8-0.1c12.3,0,23.3,5.2,31,13.6l0,0
	c7.1,9.4,11.3,21.3,11.3,34.2c0,1.1,0,2.3-0.1,3.4v-0.1v103.9h52V426.3c0.1-1.8,0.2-3.8,0.2-6c0-22.7-8.2-43.4-21.7-59.5l0.1,0.1
	c-14.1-14.4-33.8-23.3-55.5-23.3c-1.6,0-3.1,0.1-4.6,0.1L315.1,337.8L315.1,337.8z M757,250.6h51.6v286.8H757V250.6L757,250.6z
	 M702.4,367.4c-8.8-9.1-19.4-16.4-31.3-21.4l-0.6-0.2c-11.7-4.9-25.3-7.8-39.5-7.8c-0.5,0-1,0-1.5,0h0.1c-0.2,0-0.5,0-0.8,0
	c-41.6,0-77.3,25.2-92.6,61.2l-0.3,0.6c-5,11.4-8,24.7-8,38.7c0,0.4,0,0.8,0,1.1v-0.1c0,0.2,0,0.5,0,0.8c0,14,2.8,27.5,7.8,39.7
	l-0.3-0.7c5.1,12.5,12.3,23.2,21.1,32.3l0,0c9,9.1,19.9,16.5,32,21.4l0.6,0.2c12.1,5.1,26.1,8.1,40.9,8.1c0.4,0,0.8,0,1.1,0h0
	c0.9,0,1.9,0.1,3,0.1c33.5,0,63.5-14.9,83.8-38.3l0.1-0.1L681,474.8c-12.3,13.4-29.9,21.7-49.5,21.8h0c-0.8,0.1-1.8,0.1-2.8,0.1
	c-12.3,0-23.6-3.8-33-10.2l0.2,0.1c-8.9-6.6-15.5-16-18.5-26.9l-0.1-0.4l-0.6-1.8h153.5v-18.3c0-0.2,0-0.4,0-0.6
	c0-14-2.7-27.4-7.6-39.7l0.3,0.7c-5.1-12.5-12.1-23.2-20.7-32.3L702.4,367.4L702.4,367.4z M577.3,421.3c4-22.7,23.5-39.6,47-39.6
	c1.7,0,3.3,0.1,5,0.3l-0.2,0c1.5-0.2,3.3-0.3,5-0.3c23.4,0,42.9,16.9,46.9,39.2l0.1,0.3L577.3,421.3z M476.2,265.6h-51.6v189.1
	c0,1,0,2.1,0,3.2c0,13.2,1.5,26,4.3,38.3l-0.2-1.1c2.4,10.1,7.2,18.8,13.8,25.9l0,0c6.8,6.7,15.2,11.6,24.7,14l0.4,0.1
	c10.7,2.7,23,4.3,35.6,4.3c1.3,0,2.5,0,3.8,0h-0.2h6.8v-47.9c-0.6,0-1.3,0-1.9,0c-5.8,0-11.6-0.4-17.3-1.2l0.6,0.1
	c-4.7-0.4-8.9-2.4-12.2-5.4l0,0c-2.9-3.1-4.8-7.2-5.4-11.7v-0.1c-0.8-5.1-1.2-11-1.2-17.1c0-0.6,0-1.3,0-1.9v0.1V386h37.3v-44.2
	h-37.3L476.2,265.6z M120.4,341.7H172v195.4h-51.6V341.7L120.4,341.7z"/>
</svg>
