<svg width="70" height="80" viewBox="0 0 70 80" fill="none" xmlns="http://www.w3.org/2000/svg">
<path d="M3.58435 42.0947C3.58435 44.5387 3.38883 45.3347 2.88607 45.9213C2.32652 46.4251 1.6001 46.7038 0.847122 46.7033L1.04264 48.0999C2.21001 48.1156 3.34273 47.7033 4.22676 46.9407C4.70242 46.3607 5.05638 45.6908 5.26751 44.971C5.47867 44.2512 5.54267 43.4962 5.45572 42.7511V33.506H3.58435V42.0389V42.0947Z" fill="white"/>
<path d="M17.5405 40.9932C17.5405 42.0406 17.5405 42.9763 17.6243 43.7863H15.9624L15.8507 42.1244C15.5031 42.7125 15.006 43.1979 14.4099 43.5315C13.8139 43.8651 13.1401 44.035 12.4571 44.0237C10.8371 44.0237 8.90989 43.1439 8.90989 39.5548V33.5916H10.7813V39.1777C10.7813 41.1189 11.3818 42.4177 13.0716 42.4177C13.4193 42.4215 13.7641 42.3557 14.0861 42.2244C14.408 42.0931 14.7005 41.8988 14.9463 41.653C15.1921 41.4071 15.3864 41.1147 15.5178 40.7927C15.6491 40.4708 15.7148 40.1259 15.7111 39.7782V33.5217H17.5824V40.9374L17.5405 40.9932Z" fill="white"/>
<path d="M21.0877 36.9139C21.0877 35.6151 21.0877 34.5538 21.0039 33.5901H22.6798L22.7636 35.3358C23.137 34.7051 23.6745 34.1876 24.3188 33.8383C24.9632 33.4891 25.6903 33.3213 26.4225 33.3527C28.9084 33.3527 30.7798 35.4336 30.7798 38.5339C30.7798 42.1929 28.5313 44.0084 26.1013 44.0084C25.4794 44.0361 24.8608 43.9029 24.3054 43.6215C23.75 43.3402 23.2767 42.9202 22.9312 42.4023V47.9885H21.0877V36.9558V36.9139ZM22.9312 39.6372C22.9362 39.8906 22.9643 40.143 23.015 40.3913C23.1734 41.0114 23.5341 41.561 24.04 41.953C24.5459 42.3451 25.168 42.5573 25.8081 42.556C27.7772 42.556 28.9363 40.9499 28.9363 38.6177C28.9363 36.5788 27.847 34.8331 25.8779 34.8331C25.0986 34.8969 24.3694 35.2427 23.8269 35.8058C23.2844 36.3688 22.966 37.1104 22.9312 37.8915V39.6372Z" fill="white"/>
<path d="M34.114 33.5807L36.3625 39.5998C36.5999 40.2701 36.8513 41.0801 37.0188 41.6806C37.2144 41.0661 37.4238 40.2841 37.6752 39.5579L39.7142 33.5807H41.6833L38.8902 40.8427C37.4937 44.3341 36.6418 46.1356 35.3569 47.2249C34.7098 47.816 33.9208 48.2297 33.0666 48.4259L32.6058 46.8618C33.203 46.6656 33.7575 46.3575 34.2397 45.9541C34.921 45.3988 35.4617 44.6907 35.8178 43.8872C35.894 43.748 35.946 43.5969 35.9714 43.4403C35.9555 43.2717 35.9131 43.1068 35.8457 42.9515L32.0471 33.5527H34.0861L34.114 33.5807Z" fill="white"/>
<path d="M46.6513 30.651V33.5837H49.3326V34.9803H46.6513V40.4827C46.6513 41.7396 47.0144 42.4658 48.0478 42.4658C48.4148 42.4718 48.7811 42.4295 49.1371 42.3401L49.2209 43.7366C48.687 43.9216 48.1237 44.0068 47.559 43.988C47.185 44.0114 46.8104 43.9536 46.4609 43.8186C46.1114 43.6836 45.7952 43.4746 45.534 43.2059C44.9652 42.4451 44.7057 41.497 44.8078 40.5525V34.9663H43.2158V33.5698H44.8357V31.0839L46.6513 30.651Z" fill="white"/>
<path d="M52.7798 39.0102C52.7419 39.4839 52.8073 39.9601 52.9715 40.4059C53.1356 40.8518 53.3946 41.2567 53.7306 41.5927C54.0666 41.9287 54.4715 42.1877 54.9174 42.3519C55.3632 42.516 55.8395 42.5814 56.3131 42.5435C57.2711 42.5649 58.2228 42.3841 59.1062 42.0128L59.4274 43.4093C58.3434 43.8559 57.1778 44.07 56.0058 44.0378C55.3226 44.0846 54.6374 43.983 53.9972 43.7401C53.3569 43.4972 52.7768 43.1186 52.2965 42.6304C51.8163 42.1423 51.4474 41.556 51.215 40.9118C50.9826 40.2676 50.8924 39.5808 50.9503 38.8985C50.9503 35.8261 52.7798 33.3961 55.7684 33.3961C59.1201 33.3961 59.9581 36.3289 59.9581 38.2002C59.976 38.4886 59.976 38.7777 59.9581 39.0661H52.7379L52.7798 39.0102ZM58.2543 37.6137C58.3082 37.2403 58.2814 36.8597 58.1758 36.4976C58.0702 36.1354 57.8881 35.8001 57.642 35.5143C57.3958 35.2284 57.0913 34.9986 56.7488 34.8404C56.4063 34.6822 56.0339 34.5993 55.6567 34.5971C54.8894 34.6527 54.1705 34.9928 53.6409 35.5508C53.1113 36.1088 52.8092 36.8445 52.7938 37.6137H58.2543Z" fill="white"/>
<path d="M62.7975 36.7565C62.7975 35.5555 62.7975 34.522 62.7137 33.5724H64.3896V35.5694H64.4733C64.6492 34.9531 65.0127 34.4067 65.5132 34.0063C66.0137 33.6059 66.6265 33.3713 67.2664 33.335C67.4426 33.3118 67.621 33.3118 67.7971 33.335V35.0807C67.5837 35.0559 67.3681 35.0559 67.1547 35.0807C66.5208 35.1052 65.9174 35.3597 65.4574 35.7966C64.9974 36.2335 64.7121 36.8229 64.6549 37.4548C64.6027 37.7405 64.5746 38.0302 64.5711 38.3206V43.7532H62.7277V36.7705L62.7975 36.7565Z" fill="white"/>
<path d="M61.9774 5.53035C62.0347 6.46857 61.8115 7.40261 61.3361 8.21349C60.8608 9.02439 60.1548 9.67542 59.3081 10.0837C58.4614 10.4919 57.5124 10.6389 56.5819 10.5059C55.6514 10.3728 54.7816 9.96582 54.0832 9.33669C53.3848 8.70758 52.8895 7.8848 52.6604 6.97319C52.4313 6.06159 52.4787 5.1024 52.7967 4.21785C53.1146 3.3333 53.6887 2.56341 54.4457 2.00626C55.2027 1.4491 56.1085 1.12991 57.0476 1.08934C57.6633 1.05546 58.2796 1.14363 58.8611 1.34878C59.4426 1.55393 59.9778 1.87201 60.436 2.28472C60.8941 2.69744 61.2661 3.19666 61.5307 3.75366C61.7952 4.31067 61.947 4.91448 61.9774 5.53035Z" fill="#767677"/>
<path d="M34.3626 60.2234C21.7938 60.2234 10.7471 55.7125 5.03523 49.051C7.25145 55.0438 11.2504 60.2138 16.4937 63.8652C21.737 67.5166 27.9733 69.4739 34.3626 69.4739C40.7521 69.4739 46.9882 67.5166 52.2316 63.8652C57.4749 60.2138 61.4738 55.0438 63.6901 49.051C57.9923 55.7125 46.9874 60.2234 34.3626 60.2234Z" fill="white"/>
<path d="M34.3626 16.9054C46.9315 16.9054 57.9783 21.4162 63.6901 28.0777C61.4738 22.0849 57.4749 16.9149 52.2316 13.2636C46.9882 9.6122 40.7521 7.65479 34.3626 7.65479C27.9733 7.65479 21.737 9.6122 16.4937 13.2636C11.2504 16.9149 7.25145 22.0849 5.03523 28.0777C10.7471 21.4023 21.738 16.9054 34.3626 16.9054Z" fill="white"/>
<path d="M17.0601 73.1869C17.1338 74.3686 16.854 75.5456 16.2565 76.5678C15.6589 77.5899 14.7705 78.4111 13.7046 78.9266C12.6387 79.4421 11.4434 79.6286 10.2711 79.4623C9.0988 79.2961 8.00252 78.7846 7.12194 77.9931C6.24136 77.2016 5.61635 76.1658 5.32653 75.0178C5.03672 73.8697 5.09523 72.6614 5.4946 71.5468C5.89397 70.4321 6.61612 69.4616 7.56905 68.7588C8.52199 68.0561 9.66255 67.6529 10.8454 67.6007C11.6203 67.5593 12.3958 67.6709 13.1275 67.9292C13.8593 68.1876 14.533 68.5875 15.1101 69.1063C15.6872 69.6251 16.1565 70.2524 16.491 70.9526C16.8256 71.6528 17.019 72.412 17.0601 73.1869Z" fill="#9E9E9E"/>
<path d="M6.4637 15.3873C5.78644 15.406 5.11877 15.224 4.54465 14.8643C3.97054 14.5045 3.51561 13.9831 3.23708 13.3655C2.95854 12.7478 2.86884 12.0617 2.97926 11.3932C3.08967 10.7247 3.39527 10.1039 3.85761 9.60862C4.31996 9.11339 4.91842 8.76592 5.57773 8.6099C6.23703 8.45389 6.92774 8.4963 7.56302 8.73181C8.19828 8.96731 8.74973 9.3854 9.14801 9.93348C9.5463 10.4816 9.77364 11.1352 9.80144 11.8121C9.8279 12.7275 9.49224 13.6163 8.86733 14.2857C8.24242 14.955 7.37869 15.3509 6.4637 15.3873Z" fill="#ACACAC"/>
</svg>
