<?xml version="1.0" encoding="utf-8"?>
<!-- Generator: Adobe Illustrator 19.0.0, SVG Export Plug-In . SVG Version: 6.00 Build 0)  -->
<svg version="1.1" id="Layer_1" xmlns="http://www.w3.org/2000/svg" xmlns:xlink="http://www.w3.org/1999/xlink" x="0px" y="0px"
	 viewBox="94 -4 800 800" style="enable-background:new 94 -4 800 800;" xml:space="preserve">
<style type="text/css">
	.st0{fill:#9D9FA1;}
</style>
<title>generated by pstoedit version:3.44 from NVBadge_2D.eps</title>
<path class="st0" d="M888.4,657.1c0,8.6-6.3,14.3-13.8,14.3v-0.1c-7.7,0.1-13.9-5.7-13.9-14.3c0-8.6,6.2-14.3,13.9-14.3
	C882.1,642.7,888.4,648.5,888.4,657.1L888.4,657.1z M894,657.1c0-11.8-9.2-18.6-19.3-18.6c-10.3,0-19.4,6.8-19.4,18.6
	c0,11.8,9.2,18.6,19.4,18.6C884.8,675.7,894,668.8,894,657.1 M871.4,658.6h2.1l4.8,8.4h5.3l-5.3-8.8c2.7-0.2,5-1.5,5-5.2
	c0-4.6-3.2-6.1-8.5-6.1H867v20.1h4.5L871.4,658.6 M871.4,655.2v-4.8h3.1c1.7,0,4,0.1,4,2.2c0,2.2-1.2,2.6-3.2,2.6H871.4
	 M763.7,554.4l24.1,66h-49L763.7,554.4L763.7,554.4z M737.9,528.8l-55.6,140.9h39.3l8.8-24.9h65.8l8.3,24.9h42.6l-56-140.9
	L737.9,528.8L737.9,528.8z M626.3,669.7h39.8V528.7l-39.8,0L626.3,669.7z M349.8,528.7l-33.2,111.7l-31.8-111.7l-43,0l45.5,141h57.4
	l45.8-141H349.8L349.8,528.7z M510.8,559.4h17.1c24.8,0,40.9,11.1,40.9,40.1c0,28.9-16.1,40.1-40.9,40.1h-17.1V559.4L510.8,559.4z
	 M471.3,528.7v141h64.6c34.4,0,45.6-5.7,57.8-18.5c8.6-9,14.1-28.8,14.1-50.4c0-19.8-4.7-37.5-12.9-48.5
	c-14.7-19.7-36-23.5-67.7-23.5H471.3z M94,528.5v141.2h40.2V562.5l31.1,0c10.3,0,17.6,2.6,22.6,7.9c6.3,6.7,8.9,17.5,8.9,37.3v62
	h38.9v-78c0-55.7-35.5-63.2-70.2-63.2C165.5,528.5,94,528.5,94,528.5z M407.2,528.7l0,141H447v-141H407.2z"/>
<path class="st0" d="M201,248c0,0,51.2-75.6,153.5-83.4v-27.4c-113.3,9.1-211.4,105-211.4,105s55.6,160.6,211.4,175.3v-29.1
	C240.2,374.1,201,248,201,248z M354.5,330.5v26.7c-86.4-15.4-110.4-105.2-110.4-105.2s41.5-46,110.4-53.4v29.3c-0.1,0-0.1,0-0.1,0
	c-36.2-4.3-64.4,29.4-64.4,29.4S305.8,314.1,354.5,330.5 M354.5,86.7v50.6c3.3-0.3,6.7-0.5,10-0.6
	c128.8-4.3,212.7,105.6,212.7,105.6s-96.4,117.2-196.8,117.2c-9.2,0-17.8-0.9-25.9-2.3v31.3c7.2,0.9,14.4,1.4,21.6,1.4
	c93.4,0,161-47.7,226.4-104.2c10.8,8.7,55.3,29.8,64.4,39.1c-62.2,52.1-207.2,94.1-289.4,94.1c-7.9,0-15.5-0.5-23-1.2v43.9h355.2
	V86.7L354.5,86.7L354.5,86.7z M354.5,198.5v-33.9c3.3-0.2,6.6-0.4,10-0.5c92.6-2.9,153.4,79.6,153.4,79.6s-65.6,91.1-136,91.1
	c-10.1,0-19.2-1.6-27.4-4.4V227.8c36.1,4.4,43.3,20.3,65,56.4l48.2-40.7c0,0-35.2-46.2-94.5-46.2
	C366.8,197.4,360.6,197.9,354.5,198.5"/>
</svg>
