<svg width="158" height="158" viewBox="0 0 158 158" fill="none" xmlns="http://www.w3.org/2000/svg">
<g clip-path="url(#clip0_225_159)">
<path d="M64.4233 156.91C56.7602 155.484 51.7023 153.889 50.5881 152.546C49.4163 151.134 49.3241 151.428 64.9469 106.848C70.0546 92.2728 74.744 78.4341 75.3677 76.0951C77.2696 68.9636 78.4258 68.6408 100.616 69.0459C121.723 69.4313 124.437 70.0534 126.475 74.9728C127.486 77.4127 127.257 79.1387 124.934 86.593C121.338 98.1307 119.184 102.166 114.855 105.468C111.476 108.045 110.494 108.237 97.8933 108.776C90.4399 109.095 84.0411 109.826 83.4403 110.428C82.3544 111.517 73.2021 135.863 71.8589 141.237L71.1368 144.126L81.3961 143.398C99.9623 142.082 111.289 137.035 124.042 124.395C138.105 110.458 143.911 95.4857 143.256 74.8478L142.923 64.3478L147.857 64.0355C157.529 63.4233 157.424 63.2913 157.416 76.1169C157.406 90.1996 156.108 98.3039 152.365 107.652C143.531 129.714 125.893 146.386 103.423 153.911C95.1631 156.678 92.2922 157.136 81.4233 157.42C74.5483 157.6 66.8984 157.37 64.4233 156.91ZM97.4233 152.299C111.646 148.975 127.566 138.734 137.414 126.573C143.281 119.328 149.671 106.911 151.939 98.3478C153.325 93.1164 154.379 69.3349 153.266 68.4174C153.078 68.2621 151.461 67.8567 149.673 67.5164L146.423 66.8978V77.8236C146.423 91.8771 145.266 97.2417 139.754 108.727C132.294 124.272 117.694 137.296 100.665 143.596C95.2848 145.587 91.5 146.179 81.9233 146.527C74.8625 146.783 69.3252 146.554 68.4701 145.971C67.2104 145.111 67.2604 144.204 68.8457 139.163C73.8162 123.358 79.807 108.643 81.8029 107.335C83.1727 106.438 88.635 105.698 97.2326 105.245C114.637 104.326 115.55 103.645 121.048 87.4812C124.26 78.0379 124.18 75.1018 120.673 73.6954C117.955 72.6052 81.1152 71.8376 80.0929 72.8498C79.8141 73.126 79.2756 74.5885 78.8962 76.0998L78.2066 78.8478H93.1238C112.383 78.8478 112.507 78.9205 109.594 88.5127C106.707 98.0175 105.125 99.2557 95.3025 99.7018C83.7945 100.224 83.6216 99.989 86.0405 87.0978L86.6503 83.8478H82.1593C79.6892 83.8478 77.2239 84.4103 76.6809 85.0978C75.5558 86.5221 53.2658 150.024 53.7284 150.486C53.8946 150.652 56.4814 151.447 59.4769 152.252C66.9413 154.259 88.9224 154.286 97.4233 152.299ZM103.544 93.9472C104.563 92.6884 105.888 89.8366 106.487 87.6098C107.883 82.4279 107.069 81.8821 97.9234 81.8664L90.9233 81.8543L89.2558 88.58C88.3387 92.2792 87.833 95.7016 88.1319 96.1853C88.4308 96.669 91.6038 96.8783 95.183 96.6504C100.462 96.3142 102.041 95.8038 103.544 93.9472ZM34.6203 144.821C24.5186 138.075 13.1766 125.206 7.94657 114.555C1.16028 100.735 -0.0913186 94.9499 0.00498379 77.8478C0.0776263 64.9429 0.379588 62.4677 2.74969 55.3478C7.13115 42.1856 12.6223 33.4307 22.8204 23.3478C35.8305 10.4848 47.2494 4.29254 63.7441 1.15561C74.603 -0.909524 91.2378 -0.132342 100.923 2.8926C122.634 9.67323 140.325 24.6933 150.018 44.5761C151.956 48.5517 153.792 53.3436 154.097 55.2248L154.652 58.645L116.957 58.9964C81.7764 59.3244 79.172 59.4702 77.9201 61.1827C77.1823 62.1919 73.3112 72.9919 69.3176 85.1827C65.324 97.3735 61.5766 107.678 60.99 108.082C59.5044 109.106 47.2203 109.005 45.5648 107.956C44.4717 107.264 45.6163 102.567 51.4241 83.9144C55.3939 71.1647 58.3318 60.4214 57.9526 60.0405C57.5735 59.6595 52.3696 59.1206 46.3885 58.843C40.4074 58.5654 35.0782 57.8904 34.5457 57.343C33.9197 56.6994 34.1687 54.5813 35.2505 51.3478L36.9233 46.3478L85.091 45.8478C111.583 45.5728 133.572 45.0342 133.955 44.6509C134.337 44.2676 130.437 39.7399 125.287 34.5893C110.128 19.4289 98.3332 14.4385 77.9233 14.5502C64.1796 14.6254 57.8741 16.208 46.7491 22.3743C38.1501 27.1405 26.0258 39.2565 21.7585 47.3478C15.5907 59.0431 14.1338 65.0619 14.1338 78.8478C14.1338 92.5904 15.6116 98.732 21.6576 110.116C25.574 117.49 35.062 127.849 42.5675 132.946C45.7882 135.133 48.4233 137.543 48.4233 138.302C48.4233 139.061 47.5394 141.744 46.4589 144.265C43.9942 150.015 42.5036 150.085 34.6203 144.821ZM43.3882 142.914C45.0924 139.729 44.5847 137.983 41.4896 136.382C33.2202 132.106 20.6169 117.064 15.4873 105.348C10.4485 93.8396 8.90413 75.8827 11.8749 63.3478C17.1605 41.0466 33.2175 23.1592 56.0539 14.1329C62.4835 11.5915 63.9157 11.4176 78.4233 11.4176C92.7626 11.4176 94.4144 11.6122 100.48 14.0153C112.207 18.661 118.66 22.9229 127.423 31.811C137.29 41.8175 139.359 45.0159 137.452 47.3137C136.34 48.6537 130.071 48.8478 87.8987 48.8478H39.619L38.5212 51.997C37.9174 53.7291 37.4233 55.3041 37.4233 55.497C37.4233 55.6899 42.5432 55.8478 48.8009 55.8478C62.2903 55.8478 63.1666 56.3472 61.3898 63.0215C60.164 67.6263 50.0119 100.152 48.8812 103.098C48.2913 104.634 48.8832 104.848 53.7346 104.848H59.2598L65.222 86.5978C74.5112 58.1645 74.9412 57.1943 78.5755 56.4674C80.2793 56.1266 97.1421 55.8478 116.048 55.8478C144.659 55.8478 150.423 55.6157 150.423 54.4636C150.423 51.5101 142.269 37.0259 137.051 30.7115C128.233 20.0406 117.205 12.357 103.423 7.28114C96.8439 4.85793 94.1353 4.46486 81.3557 4.07878C63.995 3.55433 58.3174 4.67909 44.9234 11.2962C26.6397 20.3291 13.9468 34.6013 6.91769 54.0306C3.78624 62.6864 2.55217 75.0197 3.55884 87.5978C5.20456 108.16 17.8768 129.345 35.7164 141.359C41.7437 145.418 42.0179 145.474 43.3882 142.914Z" fill="#009A50"/>
</g>
<defs>
<clipPath id="clip0_225_159">
<rect width="157.417" height="157.481" fill="white"/>
</clipPath>
</defs>
</svg>
