<svg width="80" height="80" viewBox="0 0 80 80" fill="none" xmlns="http://www.w3.org/2000/svg">
<path fill-rule="evenodd" clip-rule="evenodd" d="M46.897 6.71735C49.1315 6.71735 51.3142 6.93263 53.4251 7.34038C53.3921 7.6915 53.3745 8.04694 53.3745 8.40646C53.3745 14.8399 58.7563 20.0548 65.3951 20.0548C67.9094 20.0548 70.2429 19.3063 72.1725 18.0276C76.5876 23.045 79.4405 29.3927 80 36.3642L66.7575 36.7012C65.6333 27.0359 57.1713 19.524 46.8968 19.524C44.0194 19.524 41.2844 20.1144 38.8127 21.1749L32.2946 9.98974C36.7016 7.89502 41.6569 6.71735 46.8968 6.71735H46.897ZM8.67529 31.402C13.4664 31.402 17.3506 35.1657 17.3506 39.8087C17.3506 44.4515 13.4664 48.2154 8.67529 48.2154C3.88417 48.2154 0 44.4515 0 39.8087C0 35.1659 3.88417 31.402 8.67529 31.402ZM65.7012 63.1866C70.4923 63.1866 74.3765 66.9503 74.3765 71.5933C74.3765 76.2361 70.4925 80 65.7012 80C60.9101 80 57.0259 76.2363 57.0259 71.5933C57.0259 66.9505 60.9101 63.1866 65.7012 63.1866ZM65.3953 0C70.1864 0 74.0706 3.76367 74.0706 8.4067C74.0706 13.0495 70.1864 16.8134 65.3953 16.8134C60.6042 16.8134 56.72 13.0497 56.72 8.4067C56.72 3.76391 60.6039 0 65.3953 0ZM34.7908 23.4816C30.0004 27.0199 26.9086 32.6071 26.9086 38.8943C26.9086 45.2493 30.0668 50.8893 34.9451 54.4213L27.9104 65.2924C22.2784 61.4812 17.9224 56.0219 15.5887 49.6357C18.8244 47.4945 20.9484 43.8921 20.9484 39.8085C20.9484 35.5146 18.5998 31.7524 15.0797 29.6618C17.222 22.7191 21.7177 16.7608 27.6701 12.6576L34.7911 23.4813L34.7908 23.4816ZM38.9974 56.6917C41.4209 57.7031 44.0912 58.2644 46.8975 58.2644C57.1245 58.2644 65.556 50.8216 66.7424 41.2209L79.9871 41.5706C79.3464 49.1097 76.023 55.9115 70.945 61.0792C69.3597 60.3354 67.581 59.918 65.7014 59.918C59.4669 59.918 54.3384 64.5071 53.7168 70.3895C51.5158 70.8349 49.2353 71.0708 46.8975 71.0708C41.7644 71.0708 36.9029 69.9421 32.564 67.9261L38.9974 56.6912V56.6917Z" fill="white"/>
</svg>
